<mxfile host="app.diagrams.net" agent="Mozilla/5.0 (Macintosh; Intel Mac OS X 10_15_7) AppleWebKit/537.36 (KHTML, like Gecko) Chrome/133.0.0.0 Safari/537.36" version="26.0.10">
  <diagram name="Page-1" id="pXdDRyZ64dS61cigYgUA">
    <mxGraphModel dx="1079" dy="623" grid="1" gridSize="10" guides="1" tooltips="1" connect="1" arrows="1" fold="1" page="1" pageScale="1" pageWidth="827" pageHeight="1169" math="0" shadow="0">
      <root>
        <mxCell id="0" />
        <mxCell id="1" parent="0" />
        <mxCell id="v0xAUiyPOvjsgH3e3ayZ-17" style="edgeStyle=orthogonalEdgeStyle;rounded=0;orthogonalLoop=1;jettySize=auto;html=1;exitX=0.5;exitY=0.5;exitDx=0;exitDy=0;exitPerimeter=0;startArrow=classic;startFill=1;" edge="1" parent="1" source="v0xAUiyPOvjsgH3e3ayZ-2" target="v0xAUiyPOvjsgH3e3ayZ-35">
          <mxGeometry relative="1" as="geometry">
            <mxPoint x="89.99999999999977" y="76" as="targetPoint" />
          </mxGeometry>
        </mxCell>
        <mxCell id="v0xAUiyPOvjsgH3e3ayZ-24" value="" style="edgeStyle=orthogonalEdgeStyle;rounded=0;orthogonalLoop=1;jettySize=auto;html=1;startArrow=classic;startFill=1;entryX=0.5;entryY=0;entryDx=0;entryDy=0;entryPerimeter=0;" edge="1" parent="1" source="v0xAUiyPOvjsgH3e3ayZ-2" target="v0xAUiyPOvjsgH3e3ayZ-38">
          <mxGeometry relative="1" as="geometry">
            <mxPoint x="240.00000000000023" y="76" as="targetPoint" />
          </mxGeometry>
        </mxCell>
        <mxCell id="v0xAUiyPOvjsgH3e3ayZ-2" value="" style="shape=umlActor;verticalLabelPosition=bottom;verticalAlign=top;html=1;outlineConnect=0;" vertex="1" parent="1">
          <mxGeometry x="140" y="56" width="20" height="40" as="geometry" />
        </mxCell>
        <mxCell id="v0xAUiyPOvjsgH3e3ayZ-4" value="" style="shape=cylinder3;whiteSpace=wrap;html=1;boundedLbl=1;backgroundOutline=1;size=15;" vertex="1" parent="1">
          <mxGeometry x="399" y="156" width="50" height="70" as="geometry" />
        </mxCell>
        <mxCell id="v0xAUiyPOvjsgH3e3ayZ-5" value="" style="shape=cylinder3;whiteSpace=wrap;html=1;boundedLbl=1;backgroundOutline=1;size=15;" vertex="1" parent="1">
          <mxGeometry x="389" y="166" width="50" height="70" as="geometry" />
        </mxCell>
        <mxCell id="v0xAUiyPOvjsgH3e3ayZ-6" value="&lt;font size=&quot;1&quot;&gt;Database&lt;/font&gt;" style="shape=cylinder3;whiteSpace=wrap;html=1;boundedLbl=1;backgroundOutline=1;size=15;" vertex="1" parent="1">
          <mxGeometry x="379" y="176" width="50" height="70" as="geometry" />
        </mxCell>
        <mxCell id="v0xAUiyPOvjsgH3e3ayZ-9" value="Server" style="rounded=0;whiteSpace=wrap;html=1;" vertex="1" parent="1">
          <mxGeometry x="374" y="40" width="100" height="40" as="geometry" />
        </mxCell>
        <mxCell id="v0xAUiyPOvjsgH3e3ayZ-10" value="Server" style="rounded=0;whiteSpace=wrap;html=1;" vertex="1" parent="1">
          <mxGeometry x="364" y="50" width="100" height="40" as="geometry" />
        </mxCell>
        <mxCell id="v0xAUiyPOvjsgH3e3ayZ-22" value="" style="edgeStyle=orthogonalEdgeStyle;rounded=0;orthogonalLoop=1;jettySize=auto;html=1;startArrow=classic;startFill=1;" edge="1" parent="1" source="v0xAUiyPOvjsgH3e3ayZ-11" target="v0xAUiyPOvjsgH3e3ayZ-6">
          <mxGeometry relative="1" as="geometry" />
        </mxCell>
        <mxCell id="v0xAUiyPOvjsgH3e3ayZ-11" value="Web Server" style="rounded=0;whiteSpace=wrap;html=1;" vertex="1" parent="1">
          <mxGeometry x="354" y="60" width="100" height="40" as="geometry" />
        </mxCell>
        <mxCell id="v0xAUiyPOvjsgH3e3ayZ-12" value="CDN" style="ellipse;shape=cloud;whiteSpace=wrap;html=1;" vertex="1" parent="1">
          <mxGeometry x="90" y="166" width="120" height="80" as="geometry" />
        </mxCell>
        <mxCell id="v0xAUiyPOvjsgH3e3ayZ-19" value="" style="endArrow=classic;startArrow=classic;html=1;rounded=0;exitX=0.502;exitY=0.115;exitDx=0;exitDy=0;exitPerimeter=0;" edge="1" parent="1" source="v0xAUiyPOvjsgH3e3ayZ-12" target="v0xAUiyPOvjsgH3e3ayZ-2">
          <mxGeometry width="50" height="50" relative="1" as="geometry">
            <mxPoint x="230" y="206" as="sourcePoint" />
            <mxPoint x="280" y="156" as="targetPoint" />
          </mxGeometry>
        </mxCell>
        <mxCell id="v0xAUiyPOvjsgH3e3ayZ-20" style="edgeStyle=orthogonalEdgeStyle;rounded=0;orthogonalLoop=1;jettySize=auto;html=1;entryX=0.007;entryY=0.397;entryDx=0;entryDy=0;entryPerimeter=0;startArrow=classic;startFill=1;exitX=0.5;exitY=1;exitDx=0;exitDy=0;exitPerimeter=0;" edge="1" parent="1" source="v0xAUiyPOvjsgH3e3ayZ-38" target="v0xAUiyPOvjsgH3e3ayZ-11">
          <mxGeometry relative="1" as="geometry">
            <mxPoint x="300.0000000000002" y="76" as="sourcePoint" />
          </mxGeometry>
        </mxCell>
        <mxCell id="v0xAUiyPOvjsgH3e3ayZ-23" style="edgeStyle=orthogonalEdgeStyle;rounded=0;orthogonalLoop=1;jettySize=auto;html=1;entryX=0.079;entryY=0.994;entryDx=0;entryDy=0;entryPerimeter=0;startArrow=classic;startFill=1;" edge="1" parent="1" source="v0xAUiyPOvjsgH3e3ayZ-12" target="v0xAUiyPOvjsgH3e3ayZ-11">
          <mxGeometry relative="1" as="geometry" />
        </mxCell>
        <mxCell id="v0xAUiyPOvjsgH3e3ayZ-25" value="High Level Design" style="text;html=1;align=center;verticalAlign=middle;whiteSpace=wrap;rounded=0;" vertex="1" parent="1">
          <mxGeometry x="10" y="10" width="110" height="30" as="geometry" />
        </mxCell>
        <mxCell id="v0xAUiyPOvjsgH3e3ayZ-26" value="&lt;font style=&quot;font-size: 8px;&quot;&gt;AWS EC2&lt;/font&gt;" style="sketch=0;points=[[0,0,0],[0.25,0,0],[0.5,0,0],[0.75,0,0],[1,0,0],[0,1,0],[0.25,1,0],[0.5,1,0],[0.75,1,0],[1,1,0],[0,0.25,0],[0,0.5,0],[0,0.75,0],[1,0.25,0],[1,0.5,0],[1,0.75,0]];outlineConnect=0;fontColor=#232F3E;fillColor=#ED7100;strokeColor=#ffffff;dashed=0;verticalLabelPosition=bottom;verticalAlign=top;align=center;html=1;fontSize=12;fontStyle=0;aspect=fixed;shape=mxgraph.aws4.resourceIcon;resIcon=mxgraph.aws4.ec2;" vertex="1" parent="1">
          <mxGeometry x="630" y="40" width="30" height="30" as="geometry" />
        </mxCell>
        <mxCell id="v0xAUiyPOvjsgH3e3ayZ-29" value="&lt;font style=&quot;font-size: 8px;&quot;&gt;AWS Elastic &lt;br&gt;Load Balancing&lt;/font&gt;" style="sketch=0;points=[[0,0,0],[0.25,0,0],[0.5,0,0],[0.75,0,0],[1,0,0],[0,1,0],[0.25,1,0],[0.5,1,0],[0.75,1,0],[1,1,0],[0,0.25,0],[0,0.5,0],[0,0.75,0],[1,0.25,0],[1,0.5,0],[1,0.75,0]];outlineConnect=0;fontColor=#232F3E;fillColor=#ED7100;strokeColor=#ffffff;dashed=0;verticalLabelPosition=bottom;verticalAlign=top;align=center;html=1;fontSize=12;fontStyle=0;aspect=fixed;shape=mxgraph.aws4.resourceIcon;resIcon=mxgraph.aws4.elastic_load_balancing;" vertex="1" parent="1">
          <mxGeometry x="560" y="40" width="30" height="30" as="geometry" />
        </mxCell>
        <mxCell id="v0xAUiyPOvjsgH3e3ayZ-31" value="&lt;font style=&quot;font-size: 8px;&quot;&gt;AWS CloudFront&lt;/font&gt;" style="outlineConnect=0;dashed=0;verticalLabelPosition=bottom;verticalAlign=top;align=center;html=1;shape=mxgraph.aws3.cloudfront;fillColor=#F58536;gradientColor=none;" vertex="1" parent="1">
          <mxGeometry x="560.8" y="123" width="29.2" height="35.5" as="geometry" />
        </mxCell>
        <mxCell id="v0xAUiyPOvjsgH3e3ayZ-32" value="&lt;font style=&quot;font-size: 8px;&quot;&gt;AWS Route 53&lt;/font&gt;" style="outlineConnect=0;dashed=0;verticalLabelPosition=bottom;verticalAlign=top;align=center;html=1;shape=mxgraph.aws3.route_53;fillColor=#F58536;gradientColor=none;" vertex="1" parent="1">
          <mxGeometry x="630" y="121.25" width="30.72" height="37.25" as="geometry" />
        </mxCell>
        <mxCell id="v0xAUiyPOvjsgH3e3ayZ-33" value="&lt;font style=&quot;font-size: 8px;&quot;&gt;AWS Certificate &lt;br&gt;Manager&lt;/font&gt;" style="sketch=0;points=[[0,0,0],[0.25,0,0],[0.5,0,0],[0.75,0,0],[1,0,0],[0,1,0],[0.25,1,0],[0.5,1,0],[0.75,1,0],[1,1,0],[0,0.25,0],[0,0.5,0],[0,0.75,0],[1,0.25,0],[1,0.5,0],[1,0.75,0]];outlineConnect=0;fontColor=#232F3E;fillColor=#DD344C;strokeColor=#ffffff;dashed=0;verticalLabelPosition=bottom;verticalAlign=top;align=center;html=1;fontSize=12;fontStyle=0;aspect=fixed;shape=mxgraph.aws4.resourceIcon;resIcon=mxgraph.aws4.certificate_manager_3;" vertex="1" parent="1">
          <mxGeometry x="690" y="40" width="30" height="30" as="geometry" />
        </mxCell>
        <mxCell id="v0xAUiyPOvjsgH3e3ayZ-34" value="&lt;font style=&quot;font-size: 8px;&quot;&gt;MongoDB&lt;br&gt;Atlas&lt;/font&gt;" style="dashed=0;outlineConnect=0;html=1;align=center;labelPosition=center;verticalLabelPosition=bottom;verticalAlign=top;shape=mxgraph.weblogos.mongodb" vertex="1" parent="1">
          <mxGeometry x="694.48" y="114.5" width="21.03" height="44" as="geometry" />
        </mxCell>
        <mxCell id="v0xAUiyPOvjsgH3e3ayZ-35" value="" style="image;aspect=fixed;html=1;points=[];align=center;fontSize=12;image=img/lib/azure2/networking/DNS_Zones.svg;" vertex="1" parent="1">
          <mxGeometry x="34" y="48" width="56" height="56" as="geometry" />
        </mxCell>
        <mxCell id="v0xAUiyPOvjsgH3e3ayZ-38" value="" style="verticalLabelPosition=bottom;html=1;verticalAlign=top;align=center;strokeColor=none;fillColor=#00BEF2;shape=mxgraph.azure.azure_load_balancer;rotation=-90;" vertex="1" parent="1">
          <mxGeometry x="240" y="58.5" width="50" height="35" as="geometry" />
        </mxCell>
        <mxCell id="v0xAUiyPOvjsgH3e3ayZ-40" value="LB" style="text;html=1;align=center;verticalAlign=middle;whiteSpace=wrap;rounded=0;" vertex="1" parent="1">
          <mxGeometry x="235" y="100" width="60" height="30" as="geometry" />
        </mxCell>
        <mxCell id="v0xAUiyPOvjsgH3e3ayZ-48" value="Stateless Chat" style="text;html=1;align=center;verticalAlign=middle;whiteSpace=wrap;rounded=0;" vertex="1" parent="1">
          <mxGeometry x="34" y="310" width="90" height="30" as="geometry" />
        </mxCell>
        <mxCell id="v0xAUiyPOvjsgH3e3ayZ-50" value="" style="shape=umlActor;verticalLabelPosition=bottom;verticalAlign=top;html=1;outlineConnect=0;" vertex="1" parent="1">
          <mxGeometry x="45" y="360" width="20" height="40" as="geometry" />
        </mxCell>
        <mxCell id="v0xAUiyPOvjsgH3e3ayZ-51" value="" style="edgeStyle=orthogonalEdgeStyle;rounded=0;orthogonalLoop=1;jettySize=auto;html=1;startArrow=classic;startFill=1;entryX=0.5;entryY=0;entryDx=0;entryDy=0;entryPerimeter=0;" edge="1" parent="1" target="v0xAUiyPOvjsgH3e3ayZ-52" source="v0xAUiyPOvjsgH3e3ayZ-50">
          <mxGeometry relative="1" as="geometry">
            <mxPoint x="80" y="382.5" as="sourcePoint" />
            <mxPoint x="160.00000000000023" y="382.5" as="targetPoint" />
          </mxGeometry>
        </mxCell>
        <mxCell id="v0xAUiyPOvjsgH3e3ayZ-53" value="&lt;span style=&quot;line-height: 70%;&quot;&gt;Answer&lt;br&gt;{id, answer}&lt;/span&gt;" style="edgeLabel;html=1;align=center;verticalAlign=middle;resizable=0;points=[];fontSize=7;" vertex="1" connectable="0" parent="v0xAUiyPOvjsgH3e3ayZ-51">
          <mxGeometry x="0.1988" y="-1" relative="1" as="geometry">
            <mxPoint x="-8" y="9" as="offset" />
          </mxGeometry>
        </mxCell>
        <mxCell id="v0xAUiyPOvjsgH3e3ayZ-58" value="&lt;font&gt;POST /message&lt;/font&gt;&lt;div&gt;&lt;font&gt;{SSID, msg}&lt;/font&gt;&lt;/div&gt;" style="edgeLabel;html=1;align=center;verticalAlign=middle;resizable=0;points=[];fontSize=7;" vertex="1" connectable="0" parent="v0xAUiyPOvjsgH3e3ayZ-51">
          <mxGeometry x="0.277" relative="1" as="geometry">
            <mxPoint x="-11" y="-15" as="offset" />
          </mxGeometry>
        </mxCell>
        <mxCell id="v0xAUiyPOvjsgH3e3ayZ-57" value="" style="edgeStyle=orthogonalEdgeStyle;rounded=0;orthogonalLoop=1;jettySize=auto;html=1;startArrow=classic;startFill=1;" edge="1" parent="1" source="v0xAUiyPOvjsgH3e3ayZ-52" target="v0xAUiyPOvjsgH3e3ayZ-56">
          <mxGeometry relative="1" as="geometry" />
        </mxCell>
        <mxCell id="v0xAUiyPOvjsgH3e3ayZ-52" value="" style="verticalLabelPosition=bottom;html=1;verticalAlign=top;align=center;strokeColor=none;fillColor=#00BEF2;shape=mxgraph.azure.azure_load_balancer;rotation=-90;" vertex="1" parent="1">
          <mxGeometry x="160" y="362.5" width="50" height="35" as="geometry" />
        </mxCell>
        <mxCell id="v0xAUiyPOvjsgH3e3ayZ-54" value="Server" style="rounded=0;whiteSpace=wrap;html=1;" vertex="1" parent="1">
          <mxGeometry x="275" y="340" width="100" height="40" as="geometry" />
        </mxCell>
        <mxCell id="v0xAUiyPOvjsgH3e3ayZ-55" value="Server" style="rounded=0;whiteSpace=wrap;html=1;" vertex="1" parent="1">
          <mxGeometry x="265" y="350" width="100" height="40" as="geometry" />
        </mxCell>
        <mxCell id="v0xAUiyPOvjsgH3e3ayZ-63" value="" style="edgeStyle=orthogonalEdgeStyle;rounded=0;orthogonalLoop=1;jettySize=auto;html=1;entryX=0;entryY=0.5;entryDx=0;entryDy=0;entryPerimeter=0;startArrow=classic;startFill=1;" edge="1" parent="1" source="v0xAUiyPOvjsgH3e3ayZ-56" target="v0xAUiyPOvjsgH3e3ayZ-64">
          <mxGeometry relative="1" as="geometry">
            <mxPoint x="295" y="470" as="targetPoint" />
          </mxGeometry>
        </mxCell>
        <mxCell id="v0xAUiyPOvjsgH3e3ayZ-65" value="Check session ID&lt;br&gt;and store the message &amp;amp; answer" style="edgeLabel;html=1;align=center;verticalAlign=middle;resizable=0;points=[];fontSize=8;" vertex="1" connectable="0" parent="v0xAUiyPOvjsgH3e3ayZ-63">
          <mxGeometry x="-0.4317" y="2" relative="1" as="geometry">
            <mxPoint x="-2" y="2" as="offset" />
          </mxGeometry>
        </mxCell>
        <mxCell id="v0xAUiyPOvjsgH3e3ayZ-104" style="edgeStyle=orthogonalEdgeStyle;rounded=0;orthogonalLoop=1;jettySize=auto;html=1;exitX=1;exitY=0.5;exitDx=0;exitDy=0;startArrow=classic;startFill=1;" edge="1" parent="1" source="v0xAUiyPOvjsgH3e3ayZ-56" target="v0xAUiyPOvjsgH3e3ayZ-103">
          <mxGeometry relative="1" as="geometry" />
        </mxCell>
        <mxCell id="v0xAUiyPOvjsgH3e3ayZ-105" value="AI inference" style="edgeLabel;html=1;align=center;verticalAlign=middle;resizable=0;points=[];fontSize=8;" vertex="1" connectable="0" parent="v0xAUiyPOvjsgH3e3ayZ-104">
          <mxGeometry x="0.056" relative="1" as="geometry">
            <mxPoint as="offset" />
          </mxGeometry>
        </mxCell>
        <mxCell id="v0xAUiyPOvjsgH3e3ayZ-56" value="Web Server" style="rounded=0;whiteSpace=wrap;html=1;" vertex="1" parent="1">
          <mxGeometry x="255" y="360" width="100" height="40" as="geometry" />
        </mxCell>
        <mxCell id="v0xAUiyPOvjsgH3e3ayZ-60" value="" style="shape=cylinder3;whiteSpace=wrap;html=1;boundedLbl=1;backgroundOutline=1;size=15;" vertex="1" parent="1">
          <mxGeometry x="365" y="440" width="50" height="70" as="geometry" />
        </mxCell>
        <mxCell id="v0xAUiyPOvjsgH3e3ayZ-61" value="" style="shape=cylinder3;whiteSpace=wrap;html=1;boundedLbl=1;backgroundOutline=1;size=15;" vertex="1" parent="1">
          <mxGeometry x="355" y="450" width="50" height="70" as="geometry" />
        </mxCell>
        <mxCell id="v0xAUiyPOvjsgH3e3ayZ-64" value="&lt;font size=&quot;1&quot;&gt;Database&lt;/font&gt;" style="shape=cylinder3;whiteSpace=wrap;html=1;boundedLbl=1;backgroundOutline=1;size=15;" vertex="1" parent="1">
          <mxGeometry x="344" y="460" width="50" height="70" as="geometry" />
        </mxCell>
        <mxCell id="v0xAUiyPOvjsgH3e3ayZ-68" value="&lt;font style=&quot;font-size: 8px;&quot;&gt;Proper shard will be used.&lt;/font&gt;&lt;div&gt;&lt;font style=&quot;font-size: 8px;&quot;&gt;mongos routes accordingly.&lt;/font&gt;&lt;/div&gt;" style="text;html=1;align=left;verticalAlign=middle;whiteSpace=wrap;rounded=0;" vertex="1" parent="1">
          <mxGeometry x="329" y="530" width="100" height="30" as="geometry" />
        </mxCell>
        <mxCell id="v0xAUiyPOvjsgH3e3ayZ-82" value="" style="edgeStyle=orthogonalEdgeStyle;rounded=0;orthogonalLoop=1;jettySize=auto;html=1;startArrow=classic;startFill=1;" edge="1" parent="1" source="v0xAUiyPOvjsgH3e3ayZ-73" target="v0xAUiyPOvjsgH3e3ayZ-79">
          <mxGeometry relative="1" as="geometry" />
        </mxCell>
        <mxCell id="v0xAUiyPOvjsgH3e3ayZ-84" value="&lt;font style=&quot;font-size: 8px;&quot;&gt;JS Array&lt;/font&gt;" style="edgeLabel;html=1;align=center;verticalAlign=middle;resizable=0;points=[];" vertex="1" connectable="0" parent="v0xAUiyPOvjsgH3e3ayZ-82">
          <mxGeometry x="-0.2389" y="1" relative="1" as="geometry">
            <mxPoint x="1" y="-9" as="offset" />
          </mxGeometry>
        </mxCell>
        <mxCell id="v0xAUiyPOvjsgH3e3ayZ-73" value="List" style="swimlane;fontStyle=0;childLayout=stackLayout;horizontal=1;startSize=20;horizontalStack=0;resizeParent=1;resizeParentMax=0;resizeLast=0;collapsible=1;marginBottom=0;whiteSpace=wrap;html=1;fontSize=9;verticalAlign=top;textOpacity=90;" vertex="1" parent="1">
          <mxGeometry x="19.5" y="560" width="71" height="80" as="geometry">
            <mxRectangle x="19.5" y="560" width="50" height="20" as="alternateBounds" />
          </mxGeometry>
        </mxCell>
        <mxCell id="v0xAUiyPOvjsgH3e3ayZ-74" value="Pre answer 1" style="text;strokeColor=none;fillColor=none;align=left;verticalAlign=middle;spacingLeft=4;spacingRight=4;overflow=hidden;points=[[0,0.5],[1,0.5]];portConstraint=eastwest;rotatable=0;whiteSpace=wrap;html=1;fontSize=8;" vertex="1" parent="v0xAUiyPOvjsgH3e3ayZ-73">
          <mxGeometry y="20" width="71" height="20" as="geometry" />
        </mxCell>
        <mxCell id="v0xAUiyPOvjsgH3e3ayZ-75" value="Pre answer 2" style="text;strokeColor=none;fillColor=none;align=left;verticalAlign=middle;spacingLeft=4;spacingRight=4;overflow=hidden;points=[[0,0.5],[1,0.5]];portConstraint=eastwest;rotatable=0;whiteSpace=wrap;html=1;fontSize=8;" vertex="1" parent="v0xAUiyPOvjsgH3e3ayZ-73">
          <mxGeometry y="40" width="71" height="20" as="geometry" />
        </mxCell>
        <mxCell id="v0xAUiyPOvjsgH3e3ayZ-76" value="Pre answer 3" style="text;strokeColor=none;fillColor=none;align=left;verticalAlign=middle;spacingLeft=4;spacingRight=4;overflow=hidden;points=[[0,0.5],[1,0.5]];portConstraint=eastwest;rotatable=0;whiteSpace=wrap;html=1;fontSize=8;" vertex="1" parent="v0xAUiyPOvjsgH3e3ayZ-73">
          <mxGeometry y="60" width="71" height="20" as="geometry" />
        </mxCell>
        <mxCell id="v0xAUiyPOvjsgH3e3ayZ-81" value="" style="edgeStyle=orthogonalEdgeStyle;rounded=0;orthogonalLoop=1;jettySize=auto;html=1;exitX=0.499;exitY=0.135;exitDx=0;exitDy=0;exitPerimeter=0;" edge="1" parent="1" source="v0xAUiyPOvjsgH3e3ayZ-79" target="v0xAUiyPOvjsgH3e3ayZ-50">
          <mxGeometry relative="1" as="geometry" />
        </mxCell>
        <mxCell id="v0xAUiyPOvjsgH3e3ayZ-83" value="&lt;font&gt;Pre answers&lt;/font&gt;" style="edgeLabel;html=1;align=center;verticalAlign=middle;resizable=0;points=[];fontSize=8;" vertex="1" connectable="0" parent="v0xAUiyPOvjsgH3e3ayZ-81">
          <mxGeometry x="-0.1753" relative="1" as="geometry">
            <mxPoint y="-4" as="offset" />
          </mxGeometry>
        </mxCell>
        <mxCell id="v0xAUiyPOvjsgH3e3ayZ-79" value="CDN" style="ellipse;shape=cloud;whiteSpace=wrap;html=1;" vertex="1" parent="1">
          <mxGeometry x="10" y="445" width="90" height="60" as="geometry" />
        </mxCell>
        <mxCell id="v0xAUiyPOvjsgH3e3ayZ-86" value="&lt;b&gt;START HIDING&lt;/b&gt;&lt;br&gt;User types &quot;.&quot;" style="shape=parallelogram;html=1;strokeWidth=1;perimeter=parallelogramPerimeter;whiteSpace=wrap;rounded=1;arcSize=12;size=0.23;fontSize=8;" vertex="1" parent="1">
          <mxGeometry x="691.14" y="350" width="100" height="27.5" as="geometry" />
        </mxCell>
        <mxCell id="v0xAUiyPOvjsgH3e3ayZ-87" value="How it really works" style="text;html=1;align=center;verticalAlign=middle;whiteSpace=wrap;rounded=0;" vertex="1" parent="1">
          <mxGeometry x="692.14" y="310" width="110" height="30" as="geometry" />
        </mxCell>
        <mxCell id="v0xAUiyPOvjsgH3e3ayZ-88" value="Start hiding what is being typed &amp;amp; store it" style="shape=tape;whiteSpace=wrap;html=1;strokeWidth=1;size=0.19;fontSize=8;" vertex="1" parent="1">
          <mxGeometry x="699.64" y="395" width="85" height="50" as="geometry" />
        </mxCell>
        <mxCell id="v0xAUiyPOvjsgH3e3ayZ-102" style="edgeStyle=orthogonalEdgeStyle;rounded=0;orthogonalLoop=1;jettySize=auto;html=1;entryX=0.5;entryY=0;entryDx=0;entryDy=0;exitX=0.497;exitY=0.902;exitDx=0;exitDy=0;exitPerimeter=0;strokeWidth=1;" edge="1" parent="1" source="v0xAUiyPOvjsgH3e3ayZ-90" target="v0xAUiyPOvjsgH3e3ayZ-91">
          <mxGeometry relative="1" as="geometry" />
        </mxCell>
        <mxCell id="v0xAUiyPOvjsgH3e3ayZ-90" value="For each typed char, show a different one from a pre-defined pleasing message" style="shape=tape;whiteSpace=wrap;html=1;strokeWidth=1;size=0.19;fontSize=8;" vertex="1" parent="1">
          <mxGeometry x="688.0000000000001" y="460" width="116.61" height="70" as="geometry" />
        </mxCell>
        <mxCell id="v0xAUiyPOvjsgH3e3ayZ-120" value="" style="edgeStyle=orthogonalEdgeStyle;rounded=0;orthogonalLoop=1;jettySize=auto;html=1;entryX=0.496;entryY=0.107;entryDx=0;entryDy=0;entryPerimeter=0;" edge="1" parent="1" source="v0xAUiyPOvjsgH3e3ayZ-91" target="v0xAUiyPOvjsgH3e3ayZ-119">
          <mxGeometry relative="1" as="geometry" />
        </mxCell>
        <mxCell id="v0xAUiyPOvjsgH3e3ayZ-91" value="&lt;b&gt;END HIDING&lt;/b&gt;&lt;br&gt;User types &quot;.&quot;" style="shape=parallelogram;html=1;strokeWidth=1;perimeter=parallelogramPerimeter;whiteSpace=wrap;rounded=1;arcSize=12;size=0.23;fontSize=8;" vertex="1" parent="1">
          <mxGeometry x="696.3" y="550" width="100" height="27.5" as="geometry" />
        </mxCell>
        <mxCell id="v0xAUiyPOvjsgH3e3ayZ-96" value="" style="edgeStyle=orthogonalEdgeStyle;rounded=0;orthogonalLoop=1;jettySize=auto;html=1;" edge="1" parent="1" source="v0xAUiyPOvjsgH3e3ayZ-92" target="v0xAUiyPOvjsgH3e3ayZ-90">
          <mxGeometry relative="1" as="geometry" />
        </mxCell>
        <mxCell id="v0xAUiyPOvjsgH3e3ayZ-92" value="List" style="swimlane;fontStyle=0;childLayout=stackLayout;horizontal=1;startSize=20;horizontalStack=0;resizeParent=1;resizeParentMax=0;resizeLast=0;collapsible=1;marginBottom=0;whiteSpace=wrap;html=1;fontSize=9;verticalAlign=top;textOpacity=90;" vertex="1" parent="1">
          <mxGeometry x="590" y="455" width="71" height="80" as="geometry">
            <mxRectangle x="19.5" y="560" width="50" height="20" as="alternateBounds" />
          </mxGeometry>
        </mxCell>
        <mxCell id="v0xAUiyPOvjsgH3e3ayZ-93" value="Pleasing msg 1" style="text;strokeColor=none;fillColor=none;align=left;verticalAlign=middle;spacingLeft=4;spacingRight=4;overflow=hidden;points=[[0,0.5],[1,0.5]];portConstraint=eastwest;rotatable=0;whiteSpace=wrap;html=1;fontSize=8;" vertex="1" parent="v0xAUiyPOvjsgH3e3ayZ-92">
          <mxGeometry y="20" width="71" height="20" as="geometry" />
        </mxCell>
        <mxCell id="v0xAUiyPOvjsgH3e3ayZ-94" value="Pleasing msg 2" style="text;strokeColor=none;fillColor=none;align=left;verticalAlign=middle;spacingLeft=4;spacingRight=4;overflow=hidden;points=[[0,0.5],[1,0.5]];portConstraint=eastwest;rotatable=0;whiteSpace=wrap;html=1;fontSize=8;" vertex="1" parent="v0xAUiyPOvjsgH3e3ayZ-92">
          <mxGeometry y="40" width="71" height="20" as="geometry" />
        </mxCell>
        <mxCell id="v0xAUiyPOvjsgH3e3ayZ-95" value="Pleasing msg 3" style="text;strokeColor=none;fillColor=none;align=left;verticalAlign=middle;spacingLeft=4;spacingRight=4;overflow=hidden;points=[[0,0.5],[1,0.5]];portConstraint=eastwest;rotatable=0;whiteSpace=wrap;html=1;fontSize=8;" vertex="1" parent="v0xAUiyPOvjsgH3e3ayZ-92">
          <mxGeometry y="60" width="71" height="20" as="geometry" />
        </mxCell>
        <mxCell id="v0xAUiyPOvjsgH3e3ayZ-98" style="edgeStyle=orthogonalEdgeStyle;rounded=0;orthogonalLoop=1;jettySize=auto;html=1;entryX=0.492;entryY=0.151;entryDx=0;entryDy=0;entryPerimeter=0;" edge="1" parent="1" source="v0xAUiyPOvjsgH3e3ayZ-86" target="v0xAUiyPOvjsgH3e3ayZ-88">
          <mxGeometry relative="1" as="geometry" />
        </mxCell>
        <mxCell id="v0xAUiyPOvjsgH3e3ayZ-101" style="edgeStyle=orthogonalEdgeStyle;rounded=0;orthogonalLoop=1;jettySize=auto;html=1;entryX=0.465;entryY=0.126;entryDx=0;entryDy=0;entryPerimeter=0;exitX=0.506;exitY=0.884;exitDx=0;exitDy=0;exitPerimeter=0;strokeWidth=1;" edge="1" parent="1" source="v0xAUiyPOvjsgH3e3ayZ-88" target="v0xAUiyPOvjsgH3e3ayZ-90">
          <mxGeometry relative="1" as="geometry" />
        </mxCell>
        <mxCell id="v0xAUiyPOvjsgH3e3ayZ-103" value="" style="sketch=0;outlineConnect=0;fontColor=#232F3E;gradientColor=none;fillColor=#01A88D;strokeColor=none;dashed=0;verticalLabelPosition=bottom;verticalAlign=top;align=center;html=1;fontSize=12;fontStyle=0;aspect=fixed;pointerEvents=1;shape=mxgraph.aws4.sagemaker_model;" vertex="1" parent="1">
          <mxGeometry x="454" y="350.5" width="59" height="59" as="geometry" />
        </mxCell>
        <mxCell id="v0xAUiyPOvjsgH3e3ayZ-115" value="" style="edgeStyle=orthogonalEdgeStyle;rounded=0;orthogonalLoop=1;jettySize=auto;html=1;strokeWidth=1;" edge="1" parent="1" source="v0xAUiyPOvjsgH3e3ayZ-107" target="v0xAUiyPOvjsgH3e3ayZ-109">
          <mxGeometry relative="1" as="geometry" />
        </mxCell>
        <mxCell id="v0xAUiyPOvjsgH3e3ayZ-107" value="User finishes typing the pleasing message, types the question &amp;amp; send" style="rounded=1;whiteSpace=wrap;html=1;absoluteArcSize=1;arcSize=10;strokeWidth=1;fontSize=8;" vertex="1" parent="1">
          <mxGeometry x="695.3" y="675" width="102" height="50" as="geometry" />
        </mxCell>
        <mxCell id="v0xAUiyPOvjsgH3e3ayZ-109" value="App shows a pre-defined pre answer + hidden typed text by the user" style="strokeWidth=1;html=1;shape=mxgraph.flowchart.terminator;whiteSpace=wrap;fontSize=8;" vertex="1" parent="1">
          <mxGeometry x="696.3" y="762" width="100" height="60" as="geometry" />
        </mxCell>
        <mxCell id="v0xAUiyPOvjsgH3e3ayZ-114" value="" style="edgeStyle=orthogonalEdgeStyle;rounded=0;orthogonalLoop=1;jettySize=auto;html=1;" edge="1" parent="1" source="v0xAUiyPOvjsgH3e3ayZ-110" target="v0xAUiyPOvjsgH3e3ayZ-109">
          <mxGeometry relative="1" as="geometry" />
        </mxCell>
        <mxCell id="v0xAUiyPOvjsgH3e3ayZ-110" value="List" style="swimlane;fontStyle=0;childLayout=stackLayout;horizontal=1;startSize=20;horizontalStack=0;resizeParent=1;resizeParentMax=0;resizeLast=0;collapsible=1;marginBottom=0;whiteSpace=wrap;html=1;fontSize=9;verticalAlign=top;textOpacity=90;" vertex="1" parent="1">
          <mxGeometry x="590" y="752" width="71" height="80" as="geometry">
            <mxRectangle x="19.5" y="560" width="50" height="20" as="alternateBounds" />
          </mxGeometry>
        </mxCell>
        <mxCell id="v0xAUiyPOvjsgH3e3ayZ-111" value="Pre answer 1" style="text;strokeColor=none;fillColor=none;align=left;verticalAlign=middle;spacingLeft=4;spacingRight=4;overflow=hidden;points=[[0,0.5],[1,0.5]];portConstraint=eastwest;rotatable=0;whiteSpace=wrap;html=1;fontSize=8;" vertex="1" parent="v0xAUiyPOvjsgH3e3ayZ-110">
          <mxGeometry y="20" width="71" height="20" as="geometry" />
        </mxCell>
        <mxCell id="v0xAUiyPOvjsgH3e3ayZ-112" value="Pre answer 2" style="text;strokeColor=none;fillColor=none;align=left;verticalAlign=middle;spacingLeft=4;spacingRight=4;overflow=hidden;points=[[0,0.5],[1,0.5]];portConstraint=eastwest;rotatable=0;whiteSpace=wrap;html=1;fontSize=8;" vertex="1" parent="v0xAUiyPOvjsgH3e3ayZ-110">
          <mxGeometry y="40" width="71" height="20" as="geometry" />
        </mxCell>
        <mxCell id="v0xAUiyPOvjsgH3e3ayZ-113" value="Pre answer 3" style="text;strokeColor=none;fillColor=none;align=left;verticalAlign=middle;spacingLeft=4;spacingRight=4;overflow=hidden;points=[[0,0.5],[1,0.5]];portConstraint=eastwest;rotatable=0;whiteSpace=wrap;html=1;fontSize=8;" vertex="1" parent="v0xAUiyPOvjsgH3e3ayZ-110">
          <mxGeometry y="60" width="71" height="20" as="geometry" />
        </mxCell>
        <mxCell id="v0xAUiyPOvjsgH3e3ayZ-117" value="" style="edgeStyle=orthogonalEdgeStyle;rounded=0;orthogonalLoop=1;jettySize=auto;html=1;startArrow=classic;startFill=1;endArrow=none;" edge="1" parent="1" source="v0xAUiyPOvjsgH3e3ayZ-116" target="v0xAUiyPOvjsgH3e3ayZ-107">
          <mxGeometry relative="1" as="geometry" />
        </mxCell>
        <mxCell id="v0xAUiyPOvjsgH3e3ayZ-116" value="Store the question &amp;amp; answer in the database" style="strokeWidth=1;html=1;shape=mxgraph.flowchart.terminator;whiteSpace=wrap;fontSize=8;" vertex="1" parent="1">
          <mxGeometry x="581" y="677.5" width="89" height="45" as="geometry" />
        </mxCell>
        <mxCell id="v0xAUiyPOvjsgH3e3ayZ-121" value="" style="edgeStyle=orthogonalEdgeStyle;rounded=0;orthogonalLoop=1;jettySize=auto;html=1;exitX=0.503;exitY=0.929;exitDx=0;exitDy=0;exitPerimeter=0;" edge="1" parent="1" source="v0xAUiyPOvjsgH3e3ayZ-119" target="v0xAUiyPOvjsgH3e3ayZ-107">
          <mxGeometry relative="1" as="geometry" />
        </mxCell>
        <mxCell id="v0xAUiyPOvjsgH3e3ayZ-119" value="Stop hiding what is typed &amp;amp; show it as a normal text field" style="shape=tape;whiteSpace=wrap;html=1;strokeWidth=1;size=0.19;fontSize=8;" vertex="1" parent="1">
          <mxGeometry x="703.81" y="600" width="85" height="50" as="geometry" />
        </mxCell>
      </root>
    </mxGraphModel>
  </diagram>
</mxfile>
